Coordinates
version=1
nRows=35
nColumns=36
inDegrees=yes
inDegrees=no

Units are S.I. units (second, meters, Newtons, ...)
If the header above contains a line with 'inDegrees', this indicates whether rotational values are in degrees (yes) or radians (no).

endheader
time	pelvis_tilt	pelvis_list	pelvis_rotation	pelvis_tx	pelvis_ty	pelvis_tz	hip_flexion_r	hip_adduction_r	hip_rotation_r	knee_angle_r	knee_angle_r_beta	ankle_angle_r	subtalar_angle_r	mtp_angle_r	hip_flexion_l	hip_adduction_l	hip_rotation_l	knee_angle_l	knee_angle_l_beta	ankle_angle_l	subtalar_angle_l	mtp_angle_l	lumbar_extension	lumbar_bending	lumbar_rotation	arm_flex_r	arm_add_r	arm_rot_r	elbow_flex_r	pro_sup_r	arm_flex_l	arm_add_l	arm_rot_l	elbow_flex_l	pro_sup_l
0.000000 0.358373 -0.180362 -0.135017 -0.005865 0.008951 -0.006162 1.372250 0.150320 -0.255026 1.145664 0.019996 0.329769 -0.316599 -0.124710 1.423458 -0.172724 0.079013 1.411661 0.024638 0.831907 0.547430 -0.124710 -1.149098 -0.109336 -0.057629 2.565475 0.218231 0.806103 0.641572 1.275212 1.321550 -0.211727 0.029657 0.713491 1.512429
0.016667 0.214385 -0.166720 -0.174580 -0.005358 0.008776 -0.006081 1.533439 0.174020 -0.197245 1.184504 0.020673 0.558929 0.057974 -0.127715 1.579065 -0.137681 0.093119 1.385946 0.024189 0.794052 0.296277 -0.127715 -1.000621 -0.180058 -0.035881 2.517041 0.182309 0.714699 0.674063 1.416710 1.283068 -0.229827 0.091748 0.773222 1.381627
0.033333 0.114362 -0.172448 -0.200161 -0.005188 0.008725 -0.006090 1.625235 0.147891 -0.244387 1.247325 0.021770 0.631157 0.155863 -0.128847 1.680244 -0.088544 0.155388 1.418722 0.024761 0.750133 0.128799 -0.128847 -0.916993 -0.192055 -0.031435 2.466834 0.189483 0.624596 0.759168 1.516591 1.219742 -0.265515 0.075091 0.863114 1.292867
0.050000 0.050733 -0.177117 -0.193351 -0.004876 0.008665 -0.006088 1.690284 0.124772 -0.265867 1.295392 0.022609 0.616366 0.236965 -0.128922 1.761606 -0.070086 0.177529 1.458015 0.025447 0.729729 0.134737 -0.128922 -0.858790 -0.181915 -0.048675 2.400541 0.197926 0.572888 0.841689 1.505450 1.124000 -0.303101 0.050447 0.962185 1.263294
0.066667 0.029758 -0.181494 -0.180407 -0.004943 0.008747 -0.006238 1.706413 0.102803 -0.265969 1.312254 0.022903 0.579104 0.269273 -0.129134 1.783268 -0.043950 0.177203 1.457327 0.025435 0.711692 0.130578 -0.129134 -0.860499 -0.172193 -0.057294 2.386656 0.206497 0.555605 0.868394 1.475745 1.070344 -0.312503 0.042106 1.033017 1.193795
0.083333 0.015936 -0.183859 -0.158398 -0.004890 0.008635 -0.006223 1.725835 0.077623 -0.269273 1.320548 0.023048 0.605268 0.268266 -0.129150 1.803674 -0.025017 0.171606 1.452224 0.025346 0.697886 0.151447 -0.129150 -0.858894 -0.162664 -0.050903 2.377571 0.202528 0.542753 0.867121 1.466537 1.041857 -0.296437 0.050482 1.064537 1.190834
0.100000 0.008239 -0.180945 -0.142737 -0.004779 0.008755 -0.006287 1.725966 0.060193 -0.256665 1.319500 0.023030 0.617175 0.289784 -0.129376 1.816091 -0.015621 0.163749 1.451783 0.025338 0.672611 0.215653 -0.129376 -0.864392 -0.160309 -0.054649 2.364120 0.204813 0.535067 0.872341 1.386827 0.999439 -0.286574 0.031859 1.107033 1.157660
0.116667 0.007100 -0.178652 -0.119964 -0.004808 0.008711 -0.006293 1.731125 0.038875 -0.245756 1.328687 0.023190 0.615047 0.305350 -0.129426 1.817958 -0.004891 0.149191 1.440055 0.025134 0.637376 0.265285 -0.129426 -0.871585 -0.157117 -0.045583 2.354514 0.191563 0.525861 0.867686 1.374798 0.977250 -0.262859 0.037771 1.122358 1.159057
0.133333 0.008609 -0.176670 -0.100670 -0.004633 0.008746 -0.006317 1.733523 0.019415 -0.238319 1.339942 0.023386 0.611161 0.315391 -0.129443 1.819284 0.004436 0.135973 1.437684 0.025092 0.626247 0.285126 -0.129443 -0.876765 -0.152528 -0.035015 2.338113 0.181270 0.520252 0.868941 1.370558 0.939094 -0.239547 0.030798 1.139196 1.158486
0.150000 0.006648 -0.177994 -0.080876 -0.004505 0.008895 -0.006283 1.730636 0.005899 -0.230162 1.354280 0.023637 0.610006 0.352425 -0.129498 1.811299 0.006756 0.124017 1.431416 0.024983 0.624734 0.329935 -0.129498 -0.878815 -0.146665 -0.032455 2.306317 0.178811 0.505126 0.876983 1.365772 0.896792 -0.228235 0.018262 1.153097 1.160983
0.166667 0.013734 -0.175601 -0.063310 -0.004567 0.009017 -0.006357 1.713692 -0.007061 -0.220679 1.353258 0.023619 0.615439 0.348948 -0.129509 1.784260 0.011012 0.107139 1.409988 0.024609 0.619809 0.338453 -0.129509 -0.892431 -0.143861 -0.031512 2.277282 0.173837 0.503197 0.872371 1.366620 0.867328 -0.215163 0.010225 1.150882 1.159952
0.183333 0.022729 -0.175128 -0.035161 -0.004533 0.008965 -0.006261 1.706981 -0.022071 -0.210961 1.358358 0.023708 0.667298 0.362884 -0.129542 1.768936 0.018668 0.086949 1.396037 0.024365 0.631907 0.347855 -0.129542 -0.901168 -0.138484 -0.029063 2.244828 0.159249 0.496718 0.875740 1.371454 0.841366 -0.209491 0.017838 1.152268 1.162303
0.200000 0.032151 -0.175414 -0.021042 -0.004642 0.008869 -0.006301 1.703731 -0.026674 -0.201034 1.357786 0.023698 0.665504 0.370027 -0.129550 1.762763 0.020051 0.070900 1.388490 0.024234 0.636708 0.349217 -0.129550 -0.907728 -0.135730 -0.014793 2.220177 0.144817 0.496726 0.874533 1.372548 0.813139 -0.197812 0.023124 1.156611 1.163017
0.216667 0.043383 -0.168372 -0.011485 -0.004757 0.008825 -0.006380 1.701721 -0.030804 -0.183338 1.356160 0.023669 0.679988 0.380716 -0.129573 1.752138 0.027076 0.055469 1.373631 0.023974 0.653564 0.339615 -0.129573 -0.915771 -0.138574 0.002442 2.201249 0.122331 0.500291 0.870626 1.376689 0.794648 -0.181843 0.035137 1.152129 1.166499
0.233333 0.057531 -0.164456 -0.003346 -0.004900 0.008832 -0.006405 1.691616 -0.032442 -0.168807 1.348122 0.023529 0.685328 0.376892 -0.129595 1.739586 0.034142 0.046423 1.360652 0.023748 0.639215 0.331112 -0.129595 -0.927999 -0.137552 0.022629 2.183690 0.099637 0.510184 0.869930 1.380559 0.774447 -0.164976 0.043334 1.154469 1.170021
0.250000 0.070478 -0.161834 0.000797 -0.005000 0.008909 -0.006374 1.674731 -0.025158 -0.157977 1.326253 0.023147 0.685004 0.374580 -0.129602 1.722516 0.035908 0.044165 1.344488 0.023466 0.626206 0.329814 -0.129602 -0.940283 -0.138853 0.039922 2.158793 0.081925 0.516016 0.877152 1.382277 0.745012 -0.153912 0.046163 1.164854 1.171310
0.266667 0.089067 -0.162899 0.005841 -0.005192 0.009060 -0.006450 1.634436 -0.016708 -0.150670 1.285817 0.022442 0.680869 0.351531 -0.129644 1.686989 0.039091 0.043755 1.312714 0.022911 0.574478 0.302868 -0.129644 -0.965745 -0.137350 0.060061 2.139783 0.060712 0.525762 0.880438 1.390098 0.727692 -0.135375 0.043572 1.170914 1.179152
0.283333 0.102876 -0.162661 0.016137 -0.005464 0.009160 -0.006401 1.596260 -0.009485 -0.143514 1.235448 0.021563 0.678139 0.316702 -0.129692 1.650148 0.043791 0.038769 1.270073 0.022167 0.507532 0.262230 -0.129692 -0.990511 -0.138640 0.079139 2.128441 0.035998 0.531346 0.868725 1.392897 0.717015 -0.119306 0.046682 1.177220 1.184805
0.300000 0.118597 -0.156309 0.030409 -0.005697 0.009318 -0.006470 1.552910 -0.007989 -0.128516 1.186228 0.020704 0.668583 0.281179 -0.129718 1.608351 0.057280 0.033874 1.220998 0.021310 0.474296 0.245480 -0.129718 -1.021247 -0.138432 0.096941 2.124636 0.011384 0.536202 0.847461 1.392006 0.709241 -0.100033 0.054663 1.178634 1.186036
0.316667 0.137118 -0.149545 0.044498 -0.006001 0.009461 -0.006462 1.507829 -0.004280 -0.112016 1.132504 0.019766 0.653006 0.235950 -0.129756 1.560013 0.072074 0.031690 1.166730 0.020363 0.448047 0.242343 -0.129756 -1.053635 -0.135428 0.117830 2.114622 -0.016344 0.551854 0.844544 1.385647 0.702996 -0.080050 0.066120 1.174360 1.185858
0.333333 0.160150 -0.137581 0.055876 -0.006083 0.009547 -0.006457 1.464200 -0.002279 -0.096808 1.087038 0.018972 0.651727 0.195872 -0.129938 1.516588 0.087363 0.027509 1.130698 0.019734 0.445896 0.229152 -0.129938 -1.086059 -0.133247 0.129715 2.092434 -0.031278 0.558042 0.853332 1.365522 0.673359 -0.069482 0.073541 1.179129 1.178497
0.350000 0.181457 -0.128320 0.059514 -0.006127 0.009569 -0.006457 1.427404 0.004627 -0.082056 1.047057 0.018275 0.674823 0.205841 -0.130047 1.481641 0.096551 0.036741 1.111113 0.019393 0.550359 0.317689 -0.130047 -1.101727 -0.132375 0.146850 2.052637 -0.045623 0.567507 0.865106 1.365099 0.627666 -0.060432 0.076466 1.178904 1.182344
0.366667 0.208915 -0.114050 0.063926 -0.006229 0.009561 -0.006520 1.394786 0.004372 -0.061627 1.029792 0.017973 0.681448 0.208084 -0.130055 1.440734 0.110994 0.034343 1.087918 0.018988 0.578784 0.328705 -0.130055 -1.112701 -0.129253 0.166039 2.001179 -0.061807 0.570646 0.886971 1.365859 0.555876 -0.048480 0.083270 1.186187 1.184194
0.383333 0.232396 -0.102652 0.060224 -0.006448 0.009593 -0.006591 1.365040 0.006723 -0.040758 1.013875 0.017695 0.686623 0.227086 -0.130085 1.400004 0.121921 0.034981 1.056025 0.018431 0.628930 0.376280 -0.130085 -1.118659 -0.126489 0.190024 1.951050 -0.072676 0.556589 0.896335 1.368223 0.482434 -0.035788 0.095050 1.176995 1.195896
0.400000 0.265359 -0.088140 0.072598 -0.006708 0.009718 -0.006569 1.319178 -0.001537 -0.014599 0.989387 0.017268 0.668745 0.234511 -0.130097 1.343274 0.139883 0.031322 1.008766 0.017606 0.597962 0.367833 -0.130097 -1.139640 -0.112942 0.215647 1.912168 -0.082959 0.549833 0.893060 1.367000 0.435861 -0.028559 0.121221 1.149194 1.199242
0.416667 0.284465 -0.074584 0.075234 -0.006677 0.009751 -0.006477 1.284375 0.001927 0.008044 0.959827 0.016752 0.660578 0.242498 -0.130114 1.303175 0.147883 0.031797 0.970727 0.016942 0.573070 0.349057 -0.130114 -1.142710 -0.108084 0.237637 1.859581 -0.084898 0.543507 0.899785 1.361968 0.376689 -0.031885 0.134810 1.135025 1.198523
0.433333 0.300213 -0.063279 0.077455 -0.006811 0.009641 -0.006451 1.258991 0.006230 0.030487 0.926337 0.016168 0.665631 0.239844 -0.130220 1.276271 0.154049 0.032310 0.942607 0.016452 0.553611 0.328486 -0.130220 -1.136209 -0.100948 0.259939 1.805038 -0.093310 0.528530 0.893036 1.318301 0.322414 -0.042530 0.144948 1.130565 1.178651
0.450000 0.322907 -0.056179 0.087395 -0.007077 0.009737 -0.006456 1.218726 0.004288 0.048635 0.883172 0.015414 0.661883 0.254274 -0.130231 1.239903 0.168725 0.042559 0.908579 0.015858 0.534928 0.310773 -0.130231 -1.138122 -0.086568 0.282912 1.757300 -0.102285 0.517288 0.873804 1.320243 0.274590 -0.057345 0.169454 1.108805 1.176356
0.466667 0.338933 -0.053457 0.100331 -0.007202 0.009743 -0.006479 1.190410 0.000553 0.055577 0.852983 0.014887 0.658575 0.254771 -0.130245 1.208920 0.185630 0.061452 0.872934 0.015236 0.491733 0.279319 -0.130245 -1.131626 -0.064877 0.299406 1.706673 -0.107155 0.531015 0.866415 1.319441 0.237791 -0.080648 0.189537 1.094245 1.167173
0.483333 0.356347 -0.050589 0.106554 -0.007324 0.009874 -0.006514 1.156223 0.000818 0.064569 0.820551 0.014321 0.643096 0.246714 -0.130259 1.172083 0.198236 0.084942 0.838672 0.014638 0.457365 0.247415 -0.130259 -1.129309 -0.048334 0.304305 1.648921 -0.103790 0.558297 0.862990 1.314821 0.204785 -0.108270 0.206522 1.072495 1.151797
0.500000 0.365749 -0.049164 0.107550 -0.007298 0.009869 -0.006475 1.137929 0.006778 0.072045 0.801929 0.013996 0.640680 0.241526 -0.130340 1.150576 0.203761 0.106047 0.817266 0.014264 0.439311 0.219962 -0.130340 -1.113414 -0.036262 0.306057 1.583032 -0.099749 0.585943 0.840994 1.295591 0.158538 -0.143451 0.215159 1.060180 1.120252
0.516667 0.373928 -0.045883 0.089524 -0.007607 0.009793 -0.006607 1.126534 0.020529 0.079360 0.779606 0.013607 0.599989 0.196067 -0.130477 1.132965 0.201939 0.124925 0.793964 0.013857 0.419817 0.179085 -0.130477 -1.099146 -0.034317 0.310857 1.541325 -0.104450 0.615429 0.785745 1.276400 0.113428 -0.169411 0.222466 1.053081 1.105492
0.533333 0.390091 -0.049808 0.070381 -0.007973 0.009858 -0.006529 1.095640 0.042523 0.090216 0.732466 0.012784 0.531785 0.209587 -0.130483 1.106598 0.189453 0.153560 0.763424 0.013324 0.383325 0.167783 -0.130483 -1.102768 -0.032846 0.323736 1.522369 -0.113499 0.661655 0.720335 1.273414 0.083481 -0.200401 0.225503 1.084101 1.096702
0.550000 0.398614 -0.054073 0.056837 -0.007747 0.009830 -0.006476 1.081265 0.060712 0.096016 0.714576 0.012472 0.507614 0.159295 -0.130504 1.095713 0.185305 0.187015 0.757018 0.013212 0.357798 0.133543 -0.130504 -1.090110 -0.029106 0.331680 1.480482 -0.122452 0.711899 0.673779 1.231842 0.042404 -0.233567 0.207452 1.126651 1.072788
0.566667 0.396765 -0.060042 0.043926 -0.007634 0.009784 -0.006439 1.076912 0.077966 0.101147 0.702762 0.012266 0.524054 0.144872 -0.130542 1.105183 0.179882 0.201850 0.776647 0.013555 0.373228 0.110418 -0.130542 -1.059574 -0.027609 0.335064 1.413184 -0.134260 0.725357 0.653009 1.213402 0.004223 -0.276310 0.195234 1.159466 1.064632
